<svg xmlns="http://www.w3.org/2000/svg" viewBox="0 0 120 120" fill="none">
  <defs>
    <linearGradient id="cyberGrad" x1="10%" y1="0%" x2="90%" y2="100%">
      <stop offset="0%" stop-color="#4ade80" /> <stop offset="50%" stop-color="#06b6d4" /> <stop offset="100%" stop-color="#3b82f6" /> </linearGradient>
    
    <filter id="glow" x="-20%" y="-20%" width="140%" height="140%">
      <feDropShadow dx="0" dy="2" stdDeviation="5" flood-color="#06b6d4" flood-opacity="0.5"/>
    </filter>
  </defs>

  <g filter="url(#glow)">
    <path d="M60 12 L105 28 V60 C105 92 60 112 60 112 C60 112 15 92 15 60 V28 Z" 
          stroke="url(#cyberGrad)" stroke-width="5" stroke-linecap="round" stroke-linejoin="round"/>
    
    <path d="M60 25 L92 37 V60 C92 84 60 100 60 100" 
          stroke="url(#cyberGrad)" stroke-width="2.5" stroke-linecap="round" stroke-linejoin="round"/>
    <path d="M60 25 L28 37 V60 C28 84 60 100 60 100" 
          stroke="url(#cyberGrad)" stroke-width="2.5" stroke-linecap="round" stroke-linejoin="round"/>
    
    <path d="M60 40 L75 50 V65 L60 75 L45 65 V50 Z" 
          fill="url(#cyberGrad)" fill-opacity="0.15" stroke="url(#cyberGrad)" stroke-width="2"/>
    
    <circle cx="60" cy="57.5" r="4" fill="#4ade80"/>
    
    <path d="M60 75 V85 M75 57.5 H85 M45 57.5 H35 M60 40 V30" 
          stroke="url(#cyberGrad)" stroke-width="2" stroke-linecap="round"/>
  </g>
</svg>